<svg width="115" height="20" viewBox="0 0 115 20" fill="none" xmlns="http://www.w3.org/2000/svg">
<path d="M11.1375 4.2125C11.0375 4.3875 10.9292 4.51667 10.8125 4.6C10.7042 4.675 10.5667 4.7125 10.4 4.7125C10.225 4.7125 10.0333 4.65 9.825 4.525C9.625 4.39167 9.38333 4.24583 9.1 4.0875C8.81667 3.92917 8.48333 3.7875 8.1 3.6625C7.725 3.52917 7.27917 3.4625 6.7625 3.4625C6.29583 3.4625 5.8875 3.52083 5.5375 3.6375C5.1875 3.74583 4.89167 3.9 4.65 4.1C4.41667 4.3 4.24167 4.54167 4.125 4.825C4.00833 5.1 3.95 5.40417 3.95 5.7375C3.95 6.1625 4.06667 6.51667 4.3 6.8C4.54167 7.08333 4.85833 7.325 5.25 7.525C5.64167 7.725 6.0875 7.90417 6.5875 8.0625C7.0875 8.22083 7.6 8.39167 8.125 8.575C8.65 8.75 9.1625 8.95833 9.6625 9.2C10.1625 9.43333 10.6083 9.73333 11 10.1C11.3917 10.4583 11.7042 10.9 11.9375 11.425C12.1792 11.95 12.3 12.5875 12.3 13.3375C12.3 14.1542 12.1583 14.9208 11.875 15.6375C11.6 16.3458 11.1917 16.9667 10.65 17.5C10.1167 18.025 9.4625 18.4417 8.6875 18.75C7.9125 19.05 7.025 19.2 6.025 19.2C5.45 19.2 4.88333 19.1417 4.325 19.025C3.76667 18.9167 3.22917 18.7583 2.7125 18.55C2.20417 18.3417 1.725 18.0917 1.275 17.8C0.825 17.5083 0.425 17.1833 0.075 16.825L1.0625 15.2125C1.14583 15.0958 1.25417 15 1.3875 14.925C1.52083 14.8417 1.6625 14.8 1.8125 14.8C2.02083 14.8 2.24583 14.8875 2.4875 15.0625C2.72917 15.2292 3.01667 15.4167 3.35 15.625C3.68333 15.8333 4.07083 16.025 4.5125 16.2C4.9625 16.3667 5.5 16.45 6.125 16.45C7.08333 16.45 7.825 16.225 8.35 15.775C8.875 15.3167 9.1375 14.6625 9.1375 13.8125C9.1375 13.3375 9.01667 12.95 8.775 12.65C8.54167 12.35 8.22917 12.1 7.8375 11.9C7.44583 11.6917 7 11.5167 6.5 11.375C6 11.2333 5.49167 11.0792 4.975 10.9125C4.45833 10.7458 3.95 10.5458 3.45 10.3125C2.95 10.0792 2.50417 9.775 2.1125 9.4C1.72083 9.025 1.40417 8.55833 1.1625 8C0.929167 7.43333 0.8125 6.7375 0.8125 5.9125C0.8125 5.25417 0.941667 4.6125 1.2 3.9875C1.46667 3.3625 1.85 2.80833 2.35 2.325C2.85 1.84167 3.46667 1.45417 4.2 1.1625C4.93333 0.870833 5.775 0.725 6.725 0.725C7.79167 0.725 8.775 0.891666 9.675 1.225C10.575 1.55833 11.3417 2.025 11.975 2.625L11.1375 4.2125ZM17.8582 19H14.4832V0.924999H17.8582V19ZM36.3926 0.924999V19H34.6676C34.4009 19 34.1759 18.9583 33.9926 18.875C33.8176 18.7833 33.6467 18.6333 33.4801 18.425L24.0426 6.375C24.0926 6.925 24.1176 7.43333 24.1176 7.9V19H21.1551V0.924999H22.9176C23.0592 0.924999 23.1801 0.933332 23.2801 0.949998C23.3884 0.958332 23.4801 0.983332 23.5551 1.025C23.6384 1.05833 23.7176 1.1125 23.7926 1.1875C23.8676 1.25417 23.9509 1.34583 24.0426 1.4625L33.5176 13.5625C33.4926 13.2708 33.4717 12.9833 33.4551 12.7C33.4384 12.4167 33.4301 12.1542 33.4301 11.9125V0.924999H36.3926ZM54.5678 9.9375V17.25C53.6511 17.925 52.6719 18.4208 51.6303 18.7375C50.5969 19.0458 49.4886 19.2 48.3053 19.2C46.8303 19.2 45.4928 18.9708 44.2928 18.5125C43.1011 18.0542 42.0803 17.4167 41.2303 16.6C40.3886 15.7833 39.7386 14.8083 39.2803 13.675C38.8219 12.5417 38.5928 11.3042 38.5928 9.9625C38.5928 8.60417 38.8136 7.35833 39.2553 6.225C39.6969 5.09167 40.3219 4.11667 41.1303 3.3C41.9469 2.48333 42.9344 1.85 44.0928 1.4C45.2511 0.949999 46.5511 0.725 47.9928 0.725C48.7261 0.725 49.4094 0.783333 50.0428 0.899999C50.6844 1.01667 51.2761 1.17917 51.8178 1.3875C52.3678 1.5875 52.8678 1.83333 53.3178 2.125C53.7678 2.41667 54.1803 2.7375 54.5553 3.0875L53.5928 4.6125C53.4428 4.85417 53.2469 5.00417 53.0053 5.0625C52.7636 5.1125 52.5011 5.05 52.2178 4.875C51.9428 4.71667 51.6678 4.55833 51.3928 4.4C51.1178 4.24167 50.8094 4.10417 50.4678 3.9875C50.1344 3.87083 49.7553 3.775 49.3303 3.7C48.9136 3.625 48.4303 3.5875 47.8803 3.5875C46.9886 3.5875 46.1803 3.7375 45.4553 4.0375C44.7386 4.3375 44.1261 4.76667 43.6178 5.325C43.1094 5.88333 42.7178 6.55417 42.4428 7.3375C42.1678 8.12083 42.0303 8.99583 42.0303 9.9625C42.0303 10.9958 42.1761 11.9208 42.4678 12.7375C42.7678 13.5458 43.1844 14.2333 43.7178 14.8C44.2594 15.3583 44.9094 15.7875 45.6678 16.0875C46.4261 16.3792 47.2719 16.525 48.2053 16.525C48.8719 16.525 49.4678 16.4542 49.9928 16.3125C50.5178 16.1708 51.0303 15.9792 51.5303 15.7375V12.4625H49.2553C49.0386 12.4625 48.8678 12.4042 48.7428 12.2875C48.6261 12.1625 48.5678 12.0125 48.5678 11.8375V9.9375H54.5678ZM74.2949 9.9625C74.2949 11.2875 74.0741 12.5167 73.6324 13.65C73.1991 14.775 72.5824 15.75 71.7824 16.575C70.9824 17.4 70.0199 18.0458 68.8949 18.5125C67.7699 18.9708 66.5199 19.2 65.1449 19.2C63.7783 19.2 62.5324 18.9708 61.4074 18.5125C60.2824 18.0458 59.3158 17.4 58.5074 16.575C57.7074 15.75 57.0866 14.775 56.6449 13.65C56.2033 12.5167 55.9824 11.2875 55.9824 9.9625C55.9824 8.6375 56.2033 7.4125 56.6449 6.2875C57.0866 5.15417 57.7074 4.175 58.5074 3.35C59.3158 2.525 60.2824 1.88333 61.4074 1.425C62.5324 0.958333 63.7783 0.725 65.1449 0.725C66.0616 0.725 66.9241 0.833333 67.7324 1.05C68.5408 1.25833 69.2824 1.55833 69.9574 1.95C70.6324 2.33333 71.2366 2.80417 71.7699 3.3625C72.3116 3.9125 72.7699 4.52917 73.1449 5.2125C73.5199 5.89583 73.8033 6.6375 73.9949 7.4375C74.1949 8.2375 74.2949 9.07917 74.2949 9.9625ZM70.8574 9.9625C70.8574 8.97083 70.7241 8.08333 70.4574 7.3C70.1908 6.50833 69.8116 5.8375 69.3199 5.2875C68.8283 4.7375 68.2283 4.31667 67.5199 4.025C66.8199 3.73333 66.0283 3.5875 65.1449 3.5875C64.2616 3.5875 63.4658 3.73333 62.7574 4.025C62.0574 4.31667 61.4574 4.7375 60.9574 5.2875C60.4658 5.8375 60.0866 6.50833 59.8199 7.3C59.5533 8.08333 59.4199 8.97083 59.4199 9.9625C59.4199 10.9542 59.5533 11.8458 59.8199 12.6375C60.0866 13.4208 60.4658 14.0875 60.9574 14.6375C61.4574 15.1792 62.0574 15.5958 62.7574 15.8875C63.4658 16.1792 64.2616 16.325 65.1449 16.325C66.0283 16.325 66.8199 16.1792 67.5199 15.8875C68.2283 15.5958 68.8283 15.1792 69.3199 14.6375C69.8116 14.0875 70.1908 13.4208 70.4574 12.6375C70.7241 11.8458 70.8574 10.9542 70.8574 9.9625ZM87.0854 16.225V19H76.4979V0.924999H79.8604V16.225H87.0854ZM105.339 9.9625C105.339 11.2875 105.118 12.5167 104.676 13.65C104.243 14.775 103.626 15.75 102.826 16.575C102.026 17.4 101.064 18.0458 99.9389 18.5125C98.8139 18.9708 97.5639 19.2 96.1889 19.2C94.8222 19.2 93.5764 18.9708 92.4514 18.5125C91.3264 18.0458 90.3597 17.4 89.5514 16.575C88.7514 15.75 88.1305 14.775 87.6889 13.65C87.2472 12.5167 87.0264 11.2875 87.0264 9.9625C87.0264 8.6375 87.2472 7.4125 87.6889 6.2875C88.1305 5.15417 88.7514 4.175 89.5514 3.35C90.3597 2.525 91.3264 1.88333 92.4514 1.425C93.5764 0.958333 94.8222 0.725 96.1889 0.725C97.1055 0.725 97.968 0.833333 98.7764 1.05C99.5847 1.25833 100.326 1.55833 101.001 1.95C101.676 2.33333 102.281 2.80417 102.814 3.3625C103.356 3.9125 103.814 4.52917 104.189 5.2125C104.564 5.89583 104.847 6.6375 105.039 7.4375C105.239 8.2375 105.339 9.07917 105.339 9.9625ZM101.901 9.9625C101.901 8.97083 101.768 8.08333 101.501 7.3C101.235 6.50833 100.856 5.8375 100.364 5.2875C99.8722 4.7375 99.2722 4.31667 98.5639 4.025C97.8639 3.73333 97.0722 3.5875 96.1889 3.5875C95.3055 3.5875 94.5097 3.73333 93.8014 4.025C93.1014 4.31667 92.5014 4.7375 92.0014 5.2875C91.5097 5.8375 91.1305 6.50833 90.8639 7.3C90.5972 8.08333 90.4639 8.97083 90.4639 9.9625C90.4639 10.9542 90.5972 11.8458 90.8639 12.6375C91.1305 13.4208 91.5097 14.0875 92.0014 14.6375C92.5014 15.1792 93.1014 15.5958 93.8014 15.8875C94.5097 16.1792 95.3055 16.325 96.1889 16.325C97.0722 16.325 97.8639 16.1792 98.5639 15.8875C99.2722 15.5958 99.8722 15.1792 100.364 14.6375C100.856 14.0875 101.235 13.4208 101.501 12.6375C101.768 11.8458 101.901 10.9542 101.901 9.9625Z" fill="white"/>
<path d="M112.892 3.9375C112.742 4.02917 112.592 4.10833 112.442 4.175C112.3 4.23333 112.15 4.275 111.992 4.3C112.317 4.35 112.617 4.46667 112.892 4.65L114.879 5.8125L114.154 7.0625L112.167 5.9C112.017 5.80833 111.875 5.7125 111.742 5.6125C111.617 5.5125 111.508 5.40417 111.417 5.2875C111.525 5.5625 111.579 5.87917 111.579 6.2375V8.5375H110.104V6.25C110.104 6.08333 110.113 5.92083 110.129 5.7625C110.154 5.60417 110.192 5.45417 110.242 5.3125C110.15 5.42917 110.042 5.53333 109.917 5.625C109.792 5.71667 109.658 5.80833 109.517 5.9L107.542 7.05L106.804 5.8L108.792 4.65C109.108 4.46667 109.408 4.35 109.692 4.3C109.4 4.25 109.1 4.12917 108.792 3.9375L106.804 2.775L107.529 1.525L109.517 2.7C109.667 2.79167 109.804 2.8875 109.929 2.9875C110.054 3.07917 110.167 3.18333 110.267 3.3C110.158 3.025 110.104 2.7125 110.104 2.3625V0.0499996H111.579V2.3375C111.579 2.5125 111.567 2.67917 111.542 2.8375C111.525 2.99583 111.488 3.14583 111.429 3.2875C111.529 3.17083 111.642 3.06667 111.767 2.975C111.892 2.88333 112.025 2.79167 112.167 2.7L114.142 1.55L114.879 2.8L112.892 3.9375Z" fill="#EDFF7E"/>
</svg>
